<?xml version="1.0" encoding="UTF-8"?>
<svg width="400" height="400" viewBox="0 0 400 400" fill="none" xmlns="http://www.w3.org/2000/svg">
  <!-- Background Circle -->
  <circle cx="200" cy="200" r="180" fill="#F3F4F6" opacity="0.5"/>
  
  <!-- T-Shirt Shape -->
  <path d="M120 140C120 140 120 120 140 120H260C280 120 280 140 280 140V320C280 340 260 360 240 360H160C140 360 120 340 120 320V140Z" fill="#E5E7EB"/>
  <path d="M120 140C120 140 120 120 140 120H260C280 120 280 140 280 140V320C280 340 260 360 240 360H160C140 360 120 340 120 320V140Z" stroke="#9CA3AF" stroke-width="4"/>
  
  <!-- Sleeves -->
  <path d="M120 140C120 140 100 140 100 160V200C100 220 120 240 140 240" stroke="#9CA3AF" stroke-width="4"/>
  <path d="M280 140C280 140 300 140 300 160V200C300 220 280 240 260 240" stroke="#9CA3AF" stroke-width="4"/>
  
  <!-- "404" Text -->
  <text x="200" y="240" font-family="Arial" font-size="48" font-weight="bold" text-anchor="middle" fill="#6B7280">404</text>
  
  <!-- Decorative Elements -->
  <circle cx="160" cy="180" r="8" fill="#9CA3AF"/>
  <circle cx="240" cy="180" r="8" fill="#9CA3AF"/>
  <path d="M180 280C180 280 200 300 220 280" stroke="#9CA3AF" stroke-width="4" stroke-linecap="round"/>
</svg> 